<svg width="512" height="144" viewBox="0 0 512 144" fill="none" xmlns="http://www.w3.org/2000/svg">
<path fill-rule="evenodd" clip-rule="evenodd" d="M58.692 42.3715V40.2411C58.692 39.4126 58.2785 39.1759 57.4516 39.531L25.9107 51.5145C25.1428 51.8104 24.7589 52.3134 24.7589 53.0236V55.4203C24.7589 56.1896 25.1428 56.6926 25.9107 56.9293L57.4516 69.0016C58.2785 69.2384 58.692 69.0016 58.692 68.2915V66.0723C58.692 65.3622 58.4262 64.9479 57.8946 64.8296L30.5752 54.9593C29.9256 54.7246 29.9244 53.8046 30.5733 53.5682L57.8946 43.6142C58.4262 43.4959 58.692 43.0816 58.692 42.3715ZM101.857 48.8219C102.285 48.8219 102.626 48.4566 102.575 48.0301C102.227 45.129 101.146 42.7693 99.3312 40.9512C97.0867 38.7025 94.0448 37.5781 90.2059 37.5781H82.5864C78.7472 37.5781 75.7053 38.7025 73.4608 40.9512C71.6937 42.7696 70.6411 45.1296 70.3028 48.0314C70.2531 48.4575 70.5932 48.8219 71.0214 48.8219H74.0153C74.3943 48.8219 74.7089 48.5336 74.768 48.1586C75.0477 46.3861 75.7047 44.96 76.739 43.8805C78.1565 42.3419 80.2238 41.5726 82.9408 41.5726H89.9401C92.6571 41.5726 94.7241 42.3419 96.1417 43.8805C97.1761 44.96 97.8332 46.3861 98.113 48.1586C98.172 48.5336 98.4866 48.8219 98.8653 48.8219H101.857ZM119.549 48.0822C119.549 48.4907 119.218 48.8219 118.81 48.8219H115.857C115.449 48.8219 115.119 48.4907 115.119 48.0822V38.6433C115.119 37.9332 115.414 37.5781 116.005 37.5781H118.574C119.224 37.5781 119.549 37.9332 119.549 38.6433V48.0822ZM137.881 48.1684C137.815 48.5388 137.503 48.8219 137.127 48.8219H134.016C133.608 48.8219 133.278 48.4907 133.278 48.0822V38.6433C133.278 37.9332 133.573 37.5781 134.164 37.5781H136.733C137.383 37.5781 137.707 37.9332 137.707 38.6433V41.9717C137.707 42.0945 137.807 42.194 137.93 42.194C138.011 42.194 138.086 42.1486 138.126 42.0771C139.795 39.0777 142.845 37.5781 147.276 37.5781H153.124C156.904 37.5781 159.887 38.7025 162.072 40.9512C163.84 42.7696 164.892 45.1296 165.23 48.0314C165.28 48.4575 164.94 48.8219 164.511 48.8219H161.504C161.128 48.8219 160.814 48.5363 160.753 48.1634C160.466 46.4145 159.813 44.9869 158.794 43.8805C157.376 42.3419 155.309 41.5726 152.592 41.5726H146.833C143.998 41.5726 141.753 42.3419 140.1 43.8805C138.934 44.962 138.194 46.3913 137.881 48.1684ZM180.575 48.0822C180.575 48.4907 180.244 48.8219 179.837 48.8219H176.691C176.297 48.8219 175.972 48.5115 175.968 48.1166C175.968 48.0658 175.968 48.0149 175.968 47.9638C175.968 41.04 179.778 37.5781 187.397 37.5781H201.75C202.4 37.5781 202.724 37.9036 202.724 38.5545V40.5962C202.724 41.1879 202.4 41.4838 201.75 41.4838H187.84C185.418 41.4838 183.587 42.0164 182.347 43.0816C181.166 44.1469 180.575 45.3896 180.575 46.8099V48.0822ZM246.816 48.0822C246.816 48.4907 246.486 48.8219 246.078 48.8219H243.125C242.717 48.8219 242.386 48.4907 242.386 48.0822V26.8373C242.386 26.1271 242.711 25.7721 243.361 25.7721H245.842C246.491 25.7721 246.816 26.0975 246.816 26.7485V48.0822ZM290.999 48.8219C291.407 48.8219 291.738 48.4907 291.738 48.0822V38.6433C291.738 37.9332 291.442 37.5781 290.852 37.5781H272.069C268.23 37.5781 265.188 38.7025 262.943 40.9512C261.176 42.7696 260.124 45.1296 259.785 48.0314C259.735 48.4575 260.076 48.8219 260.504 48.8219H263.511C263.888 48.8219 264.202 48.5363 264.263 48.1634C264.549 46.4145 265.202 44.9869 266.221 43.8805C267.639 42.3419 269.706 41.5726 272.423 41.5726H286.422C287.012 41.5726 287.308 41.8389 287.308 42.3715V48.0822C287.308 48.4907 287.638 48.8219 288.046 48.8219H290.999ZM309.626 48.1684C309.561 48.5388 309.248 48.8219 308.873 48.8219H305.761C305.354 48.8219 305.023 48.4907 305.023 48.0822V38.6433C305.023 37.9332 305.318 37.5781 305.909 37.5781H308.478C309.128 37.5781 309.453 37.9332 309.453 38.6433V41.9717C309.453 42.0945 309.552 42.194 309.675 42.194C309.756 42.194 309.832 42.1486 309.871 42.0771C311.54 39.0777 314.59 37.5781 319.021 37.5781H324.869C328.649 37.5781 331.632 38.7025 333.817 40.9512C335.585 42.7696 336.638 45.1296 336.976 48.0314C337.025 48.4575 336.685 48.8219 336.257 48.8219H333.25C332.873 48.8219 332.559 48.5363 332.498 48.1634C332.211 46.4145 331.559 44.9869 330.539 43.8805C329.122 42.3419 327.054 41.5726 324.337 41.5726H318.578C315.743 41.5726 313.499 42.3419 311.845 43.8805C310.68 44.962 309.94 46.3913 309.626 48.1684ZM354.531 48.1684C354.466 48.5388 354.153 48.8219 353.778 48.8219H350.666C350.258 48.8219 349.928 48.4907 349.928 48.0822V38.6433C349.928 37.9332 350.223 37.5781 350.814 37.5781H353.383C354.033 37.5781 354.358 37.9332 354.358 38.6433V41.9717C354.358 42.0945 354.457 42.194 354.579 42.194C354.661 42.194 354.736 42.1486 354.776 42.0771C356.444 39.0777 359.494 37.5781 363.927 37.5781H369.774C373.554 37.5781 376.537 38.7025 378.722 40.9512C380.489 42.7696 381.542 45.1296 381.88 48.0314C381.93 48.4575 381.59 48.8219 381.162 48.8219H378.155C377.777 48.8219 377.464 48.5363 377.402 48.1634C377.117 46.4145 376.463 44.9869 375.444 43.8805C374.027 42.3419 371.959 41.5726 369.242 41.5726H363.484C360.648 41.5726 358.404 42.3419 356.75 43.8805C355.584 44.962 354.845 46.3913 354.531 48.1684ZM399.705 48.0822C399.705 48.4907 399.375 48.8219 398.967 48.8219H396.014C395.606 48.8219 395.276 48.4907 395.276 48.0822V38.6433C395.276 37.9332 395.571 37.5781 396.162 37.5781H398.731C399.381 37.5781 399.705 37.9332 399.705 38.6433V48.0822ZM415.827 48.0822C415.827 48.4907 415.497 48.8219 415.088 48.8219H411.944C411.55 48.8219 411.223 48.5115 411.22 48.1166C411.22 48.0658 411.22 48.0149 411.22 47.9638C411.22 41.04 415.029 37.5781 422.649 37.5781H437.002C437.651 37.5781 437.976 37.9036 437.976 38.5545V40.5962C437.976 41.1879 437.651 41.4838 437.002 41.4838H423.092C420.67 41.4838 418.839 42.0164 417.599 43.0816C416.417 44.1469 415.827 45.3896 415.827 46.8099V48.0822ZM451.502 40.2411V42.3715C451.502 43.0592 451.779 43.4694 452.333 43.6021C452.37 43.6109 452.406 43.6207 452.441 43.6336L479.628 53.5684C480.275 53.8052 480.274 54.724 479.625 54.959L452.388 64.8296C451.797 65.0071 451.502 65.4214 451.502 66.0723V68.2915C451.502 69.0016 451.916 69.2384 452.743 69.0016L484.372 56.9293C485.081 56.6926 485.435 56.1896 485.435 55.4203V53.0236C485.435 52.3134 485.081 51.8104 484.372 51.5145L452.743 39.531C451.916 39.1759 451.502 39.4126 451.502 40.2411Z" fill="black"/>
<path fill-rule="evenodd" clip-rule="evenodd" d="M70.9645 59.1781C70.5456 59.1781 70.209 59.5275 70.2425 59.9458C70.4978 63.1306 71.5706 65.6954 73.4608 67.6406C75.7053 69.8893 78.7472 71.0137 82.5864 71.0137H101.103C101.753 71.0137 102.078 70.6882 102.078 70.0373V67.9956C102.078 67.3447 101.753 67.0192 101.103 67.0192H82.9408C80.2238 67.0192 78.1565 66.2795 76.739 64.8C75.5976 63.5612 74.9158 61.9195 74.6934 59.8751C74.6509 59.485 74.33 59.1781 73.9384 59.1781H70.9645ZM115.857 59.1781C115.449 59.1781 115.119 59.5093 115.119 59.9178V69.9485C115.119 70.6586 115.414 71.0137 116.005 71.0137H118.663C119.253 71.0137 119.549 70.6586 119.549 69.9485V59.9178C119.549 59.5093 119.218 59.1781 118.81 59.1781H115.857ZM134.016 59.1781C133.608 59.1781 133.278 59.5093 133.278 59.9178V69.9485C133.278 70.6586 133.573 71.0137 134.164 71.0137H136.733C137.383 71.0137 137.707 70.6586 137.707 69.9485V59.9178C137.707 59.5093 137.377 59.1781 136.969 59.1781H134.016ZM161.658 59.1781C161.251 59.1781 160.92 59.5093 160.92 59.9178V69.9485C160.92 70.6586 161.245 71.0137 161.895 71.0137H164.464C165.055 71.0137 165.35 70.6586 165.35 69.9485V59.9178C165.35 59.5093 165.02 59.1781 164.612 59.1781H161.658ZM201.071 59.1781C200.662 59.1781 200.332 59.5093 200.332 59.9178V60.8943C200.332 65.0367 197.674 67.108 192.358 67.108H177.385C176.736 67.108 176.411 67.4038 176.411 67.9956V70.0373C176.411 70.6882 176.736 71.0137 177.385 71.0137H192.801C196.936 71.0137 199.978 70.1556 201.927 68.4395C203.935 66.7233 204.939 64.0899 204.939 60.5392C204.939 60.3187 204.937 60.1013 204.933 59.887C204.925 59.4907 204.599 59.1781 204.203 59.1781H201.071ZM213.844 59.1781C213.424 59.1781 213.088 59.528 213.121 59.9465C213.384 63.131 214.486 65.6956 216.427 67.6406C218.671 69.8893 221.713 71.0137 225.553 71.0137H234.412C238.252 71.0137 241.264 69.8893 243.449 67.6406C245.39 65.6956 246.493 63.131 246.755 59.9465C246.789 59.528 246.453 59.1781 246.033 59.1781H243.051C242.661 59.1781 242.341 59.4823 242.296 59.8702C242.058 61.9284 241.35 63.5716 240.171 64.8C238.754 66.2795 236.686 67.0192 233.969 67.0192H225.907C223.19 67.0192 221.123 66.2795 219.705 64.8C218.574 63.5721 217.894 61.9294 217.666 59.8722C217.622 59.4834 217.302 59.1781 216.911 59.1781H213.844ZM260.447 59.1781C260.028 59.1781 259.692 59.5275 259.725 59.9458C259.98 63.1306 261.053 65.6954 262.943 67.6406C265.188 69.8893 268.23 71.0137 272.069 71.0137H277.739C282.286 71.0137 285.336 69.5155 286.891 66.5191C286.93 66.4453 287.006 66.3978 287.088 66.3978C287.209 66.3978 287.308 66.4961 287.308 66.6173V69.9485C287.308 70.6586 287.632 71.0137 288.282 71.0137H290.852C291.442 71.0137 291.738 70.6586 291.738 69.9485V59.9178C291.738 59.5093 291.407 59.1781 290.999 59.1781H287.971C287.582 59.1781 287.263 59.4811 287.215 59.8677C286.956 61.9156 286.16 63.5597 284.827 64.8C283.232 66.2795 281.017 67.0192 278.182 67.0192H272.423C269.706 67.0192 267.639 66.2499 266.221 64.7112C265.095 63.4894 264.417 61.8758 264.185 59.8702C264.14 59.4823 263.82 59.1781 263.43 59.1781H260.447ZM305.761 59.1781C305.354 59.1781 305.023 59.5093 305.023 59.9178V69.9485C305.023 70.6586 305.318 71.0137 305.909 71.0137H308.478C309.128 71.0137 309.453 70.6586 309.453 69.9485V59.9178C309.453 59.5093 309.123 59.1781 308.714 59.1781H305.761ZM333.404 59.1781C332.996 59.1781 332.665 59.5093 332.665 59.9178V69.9485C332.665 70.6586 332.99 71.0137 333.64 71.0137H336.209C336.8 71.0137 337.095 70.6586 337.095 69.9485V59.9178C337.095 59.5093 336.765 59.1781 336.357 59.1781H333.404ZM350.666 59.1781C350.258 59.1781 349.928 59.5093 349.928 59.9178V69.9485C349.928 70.6586 350.223 71.0137 350.814 71.0137H353.383C354.033 71.0137 354.358 70.6586 354.358 69.9485V59.9178C354.358 59.5093 354.027 59.1781 353.62 59.1781H350.666ZM378.309 59.1781C377.901 59.1781 377.571 59.5093 377.571 59.9178V69.9485C377.571 70.6586 377.896 71.0137 378.545 71.0137H381.115C381.705 71.0137 382.001 70.6586 382.001 69.9485V59.9178C382.001 59.5093 381.67 59.1781 381.262 59.1781H378.309ZM396.014 59.1781C395.606 59.1781 395.276 59.5093 395.276 59.9178V69.9485C395.276 70.6586 395.571 71.0137 396.161 71.0137H398.819C399.41 71.0137 399.705 70.6586 399.705 69.9485V59.9178C399.705 59.5093 399.375 59.1781 398.967 59.1781H396.014ZM436.322 59.1781C435.915 59.1781 435.584 59.5093 435.584 59.9178V60.8943C435.584 65.0367 432.926 67.108 427.61 67.108H412.637C411.987 67.108 411.662 67.4038 411.662 67.9956V70.0373C411.662 70.6882 411.987 71.0137 412.637 71.0137H428.053C432.188 71.0137 435.23 70.1556 437.179 68.4395C439.187 66.7233 440.191 64.0899 440.191 60.5392C440.191 60.3187 440.19 60.1013 440.185 59.887C440.178 59.4907 439.851 59.1781 439.456 59.1781H436.322Z" fill="black"/>
<path d="M246.077 20.7123H243.124C242.716 20.7123 242.385 21.0435 242.385 21.4521V27.3699C242.385 27.7784 242.716 28.1096 243.124 28.1096H246.077C246.485 28.1096 246.815 27.7784 246.815 27.3699V21.4521C246.815 21.0435 246.485 20.7123 246.077 20.7123Z" fill="black"/>
<path fill-rule="evenodd" clip-rule="evenodd" d="M424.945 29.589V33.7433C424.945 33.9327 425.024 34.0274 425.181 34.0274H425.866C426.04 34.0274 426.126 33.9327 426.126 33.7433V29.589H424.945Z" fill="black"/>
<path fill-rule="evenodd" clip-rule="evenodd" d="M393.041 29.589V30.6661C393.041 31.7076 393.34 32.5282 393.938 33.1279C394.537 33.7276 395.348 34.0274 396.372 34.0274H398.735C399.759 34.0274 400.562 33.7276 401.144 33.1279C401.743 32.5282 402.042 31.7076 402.042 30.6661V29.589H400.861V30.6187C400.861 31.3762 400.672 31.9601 400.294 32.3704C399.916 32.7649 399.364 32.9622 398.64 32.9622H396.466C395.742 32.9622 395.191 32.7649 394.813 32.3704C394.435 31.9601 394.246 31.3762 394.246 30.6187V29.589H393.041Z" fill="black"/>
<path fill-rule="evenodd" clip-rule="evenodd" d="M365.141 29.589V33.7433C365.141 33.9327 365.22 34.0274 365.377 34.0274H366.062C366.236 34.0274 366.322 33.9327 366.322 33.7433V29.589H365.141Z" fill="black"/>
<path fill-rule="evenodd" clip-rule="evenodd" d="M320.842 29.589V33.7433C320.842 33.9327 320.921 34.0274 321.078 34.0274H321.763C321.937 34.0274 322.023 33.9327 322.023 33.7433V29.589H320.842Z" fill="black"/>
<path fill-rule="evenodd" clip-rule="evenodd" d="M277.281 29.589V33.7433C277.281 33.9327 277.36 34.0274 277.518 34.0274H278.203C278.376 34.0274 278.463 33.9327 278.463 33.7433V29.589H277.281Z" fill="black"/>
<path fill-rule="evenodd" clip-rule="evenodd" d="M229.291 29.589V33.7433C229.291 33.9327 229.37 34.0274 229.527 34.0274H230.212C230.386 34.0274 230.472 33.9327 230.472 33.7433V29.589H229.291Z" fill="black"/>
<path fill-rule="evenodd" clip-rule="evenodd" d="M189.421 29.589V33.7433C189.421 33.9327 189.5 34.0274 189.658 34.0274H190.343C190.516 34.0274 190.603 33.9327 190.603 33.7433V29.589H189.421Z" fill="black"/>
<path fill-rule="evenodd" clip-rule="evenodd" d="M149.552 29.589V33.7433C149.552 33.9327 149.631 34.0274 149.789 34.0274H150.474C150.647 34.0274 150.734 33.9327 150.734 33.7433V29.589H149.552Z" fill="black"/>
<path fill-rule="evenodd" clip-rule="evenodd" d="M112.849 29.589V30.6661C112.849 31.7076 113.148 32.5282 113.747 33.1279C114.346 33.7276 115.156 34.0274 116.18 34.0274H118.543C119.567 34.0274 120.37 33.7276 120.953 33.1279C121.552 32.5282 121.851 31.7076 121.851 30.6661V29.589H120.669V30.6187C120.669 31.3762 120.48 31.9601 120.102 32.3704C119.724 32.7649 119.173 32.9622 118.448 32.9622H116.275C115.551 32.9622 114.999 32.7649 114.621 32.3704C114.243 31.9601 114.054 31.3762 114.054 30.6187V29.589H112.849Z" fill="black"/>
<path fill-rule="evenodd" clip-rule="evenodd" d="M86.7953 29.589V33.7433C86.7953 33.9327 86.8741 34.0274 87.0315 34.0274H87.7167C87.89 34.0274 87.9766 33.9327 87.9766 33.7433V29.589H86.7953Z" fill="black"/>
<path fill-rule="evenodd" clip-rule="evenodd" d="M421.495 23.3694V23.8902C421.495 24.1585 421.629 24.2058 421.897 24.0322L424.945 22.3042V25.8904H426.126V21.31C426.126 21.1207 426.04 21.026 425.866 21.026H425.252C425.078 21.026 424.913 21.0812 424.756 21.1917L421.779 22.8723C421.59 22.9986 421.495 23.1643 421.495 23.3694Z" fill="black"/>
<path fill-rule="evenodd" clip-rule="evenodd" d="M400.861 25.8904V24.4346C400.861 23.6772 400.672 23.1011 400.294 22.7066C399.916 22.2963 399.364 22.0912 398.64 22.0912H396.466C395.742 22.0912 395.191 22.2963 394.813 22.7066C394.435 23.1011 394.246 23.6772 394.246 24.4346V25.8904H393.041V24.3873C393.041 23.3458 393.34 22.5252 393.938 21.9255C394.537 21.3258 395.348 21.026 396.372 21.026H398.735C399.759 21.026 400.562 21.3258 401.144 21.9255C401.743 22.5252 402.042 23.3458 402.042 24.3873V25.8904H400.861Z" fill="black"/>
<path fill-rule="evenodd" clip-rule="evenodd" d="M361.692 23.3694V23.8902C361.692 24.1585 361.825 24.2058 362.093 24.0322L365.141 22.3042V25.8904H366.322V21.31C366.322 21.1207 366.236 21.026 366.062 21.026H365.448C365.275 21.026 365.109 21.0812 364.952 21.1917L361.975 22.8723C361.786 22.9986 361.692 23.1643 361.692 23.3694Z" fill="black"/>
<path fill-rule="evenodd" clip-rule="evenodd" d="M317.393 23.3694V23.8902C317.393 24.1585 317.526 24.2058 317.794 24.0322L320.842 22.3042V25.8904H322.023V21.31C322.023 21.1207 321.937 21.026 321.763 21.026H321.149C320.976 21.026 320.81 21.0812 320.653 21.1917L317.676 22.8723C317.487 22.9986 317.393 23.1643 317.393 23.3694Z" fill="black"/>
<path fill-rule="evenodd" clip-rule="evenodd" d="M273.832 23.3694V23.8902C273.832 24.1585 273.966 24.2058 274.234 24.0322L277.281 22.3042V25.8904H278.463V21.31C278.463 21.1207 278.376 21.026 278.203 21.026H277.588C277.415 21.026 277.25 21.0812 277.092 21.1917L274.115 22.8723C273.926 22.9986 273.832 23.1643 273.832 23.3694Z" fill="black"/>
<path fill-rule="evenodd" clip-rule="evenodd" d="M225.841 23.3694V23.8902C225.841 24.1585 225.975 24.2058 226.243 24.0322L229.291 22.3042V25.8904H230.472V21.31C230.472 21.1207 230.386 21.026 230.212 21.026H229.598C229.424 21.026 229.259 21.0812 229.102 21.1917L226.125 22.8723C225.936 22.9986 225.841 23.1643 225.841 23.3694Z" fill="black"/>
<path fill-rule="evenodd" clip-rule="evenodd" d="M185.972 23.3694V23.8902C185.972 24.1585 186.106 24.2058 186.374 24.0322L189.421 22.3042V25.8904H190.603V21.31C190.603 21.1207 190.516 21.026 190.343 21.026H189.729C189.555 21.026 189.39 21.0812 189.232 21.1917L186.256 22.8723C186.067 22.9986 185.972 23.1643 185.972 23.3694Z" fill="black"/>
<path fill-rule="evenodd" clip-rule="evenodd" d="M146.103 23.3694V23.8902C146.103 24.1585 146.237 24.2058 146.505 24.0322L149.552 22.3042V25.8904H150.734V21.31C150.734 21.1207 150.647 21.026 150.474 21.026H149.859C149.686 21.026 149.521 21.0812 149.363 21.1917L146.386 22.8723C146.197 22.9986 146.103 23.1643 146.103 23.3694Z" fill="black"/>
<path fill-rule="evenodd" clip-rule="evenodd" d="M120.669 25.8904V24.4346C120.669 23.6772 120.48 23.1011 120.102 22.7066C119.724 22.2963 119.173 22.0912 118.448 22.0912H116.275C115.551 22.0912 114.999 22.2963 114.621 22.7066C114.243 23.1011 114.054 23.6772 114.054 24.4346V25.8904H112.849V24.3873C112.849 23.3458 113.148 22.5252 113.747 21.9255C114.346 21.3258 115.156 21.026 116.18 21.026H118.543C119.567 21.026 120.37 21.3258 120.953 21.9255C121.552 22.5252 121.851 23.3458 121.851 24.3873V25.8904H120.669Z" fill="black"/>
<path fill-rule="evenodd" clip-rule="evenodd" d="M83.3459 23.3694V23.8902C83.3459 24.1585 83.4797 24.2058 83.7475 24.0322L86.7953 22.3042V25.1507H87.9766V21.31C87.9766 21.1207 87.89 21.026 87.7167 21.026H87.1024C86.9291 21.026 86.7638 21.0812 86.6063 21.1917L83.6294 22.8723C83.4404 22.9986 83.3459 23.1643 83.3459 23.3694Z" fill="black"/>
<path d="M87.8461 101H85.5421C83.9821 101 82.7461 100.544 81.8341 99.632C80.9461 98.72 80.5021 97.472 80.5021 95.888V87.752C80.5021 86.168 80.9461 84.92 81.8341 84.008C82.7461 83.096 83.9821 82.64 85.5421 82.64H93.1741C93.4141 82.64 93.5341 82.784 93.5341 83.072V100.568C93.5341 100.856 93.4141 101 93.1741 101H92.1301C91.8661 101 91.7341 100.856 91.7341 100.568V99.128H91.5901C90.9661 100.376 89.7181 101 87.8461 101ZM91.7341 95.852V84.584C91.7341 84.368 91.6141 84.26 91.3741 84.26H85.6861C84.5821 84.26 83.7421 84.572 83.1661 85.196C82.5901 85.82 82.3021 86.696 82.3021 87.824V95.816C82.3021 96.944 82.5901 97.82 83.1661 98.444C83.7421 99.068 84.5821 99.38 85.6861 99.38H88.0261C89.1781 99.38 90.0781 99.08 90.7261 98.48C91.3981 97.856 91.7341 96.98 91.7341 95.852ZM100.336 106.364H99.2924C99.0524 106.364 98.9324 106.232 98.9324 105.968V83.072C98.9324 82.784 99.0524 82.64 99.2924 82.64H100.336C100.6 82.64 100.732 82.784 100.732 83.072V84.512H100.876C101.548 83.264 102.796 82.64 104.62 82.64H107.068C108.604 82.64 109.816 83.096 110.704 84.008C111.592 84.92 112.036 86.168 112.036 87.752V95.888C112.036 97.472 111.592 98.72 110.704 99.632C109.816 100.544 108.604 101 107.068 101H104.62C102.796 101 101.548 100.376 100.876 99.128H100.732V105.968C100.732 106.232 100.6 106.364 100.336 106.364ZM104.44 99.38H106.816C107.92 99.38 108.76 99.08 109.336 98.48C109.936 97.856 110.236 96.968 110.236 95.816V87.824C110.236 86.672 109.936 85.796 109.336 85.196C108.76 84.572 107.92 84.26 106.816 84.26H104.44C103.288 84.26 102.376 84.572 101.704 85.196C101.056 85.796 100.732 86.66 100.732 87.788V95.852C100.732 96.98 101.056 97.856 101.704 98.48C102.376 99.08 103.288 99.38 104.44 99.38ZM118.477 106.364H117.433C117.193 106.364 117.073 106.232 117.073 105.968V83.072C117.073 82.784 117.193 82.64 117.433 82.64H118.477C118.741 82.64 118.873 82.784 118.873 83.072V84.512H119.017C119.689 83.264 120.937 82.64 122.761 82.64H125.209C126.745 82.64 127.957 83.096 128.845 84.008C129.733 84.92 130.177 86.168 130.177 87.752V95.888C130.177 97.472 129.733 98.72 128.845 99.632C127.957 100.544 126.745 101 125.209 101H122.761C120.937 101 119.689 100.376 119.017 99.128H118.873V105.968C118.873 106.232 118.741 106.364 118.477 106.364ZM122.581 99.38H124.957C126.061 99.38 126.901 99.08 127.477 98.48C128.077 97.856 128.377 96.968 128.377 95.816V87.824C128.377 86.672 128.077 85.796 127.477 85.196C126.901 84.572 126.061 84.26 124.957 84.26H122.581C121.429 84.26 120.517 84.572 119.845 85.196C119.197 85.796 118.873 86.66 118.873 87.788V95.852C118.873 96.98 119.197 97.856 119.845 98.48C120.517 99.08 121.429 99.38 122.581 99.38ZM136.798 101H135.754C135.514 101 135.394 100.856 135.394 100.568V76.124C135.394 75.836 135.514 75.692 135.754 75.692H136.798C137.062 75.692 137.194 75.836 137.194 76.124V100.568C137.194 100.856 137.062 101 136.798 101ZM142.952 79.616V76.16C142.952 75.896 143.072 75.764 143.312 75.764H144.392C144.632 75.764 144.752 75.896 144.752 76.16V79.616C144.752 79.904 144.632 80.048 144.392 80.048H143.312C143.072 80.048 142.952 79.904 142.952 79.616ZM142.952 100.568V83.072C142.952 82.784 143.072 82.64 143.312 82.64H144.356C144.62 82.64 144.752 82.784 144.752 83.072V100.568C144.752 100.856 144.632 101 144.392 101H143.312C143.072 101 142.952 100.856 142.952 100.568ZM160.591 99.776V100.604C160.591 100.868 160.459 101 160.195 101H155.011C153.451 101 152.215 100.544 151.303 99.632C150.415 98.72 149.971 97.472 149.971 95.888V87.752C149.971 86.168 150.415 84.92 151.303 84.008C152.215 83.096 153.451 82.64 155.011 82.64H160.195C160.459 82.64 160.591 82.772 160.591 83.036V83.9C160.591 84.14 160.459 84.26 160.195 84.26H155.155C154.051 84.26 153.211 84.572 152.635 85.196C152.059 85.82 151.771 86.696 151.771 87.824V95.816C151.771 96.944 152.059 97.82 152.635 98.444C153.211 99.068 154.051 99.38 155.155 99.38H160.195C160.459 99.38 160.591 99.512 160.591 99.776ZM171.483 101H169.179C167.619 101 166.383 100.544 165.471 99.632C164.583 98.72 164.139 97.472 164.139 95.888V87.752C164.139 86.168 164.583 84.92 165.471 84.008C166.383 83.096 167.619 82.64 169.179 82.64H176.811C177.051 82.64 177.171 82.784 177.171 83.072V100.568C177.171 100.856 177.051 101 176.811 101H175.767C175.503 101 175.371 100.856 175.371 100.568V99.128H175.227C174.603 100.376 173.355 101 171.483 101ZM175.371 95.852V84.584C175.371 84.368 175.251 84.26 175.011 84.26H169.323C168.219 84.26 167.379 84.572 166.803 85.196C166.227 85.82 165.939 86.696 165.939 87.824V95.816C165.939 96.944 166.227 97.82 166.803 98.444C167.379 99.068 168.219 99.38 169.323 99.38H171.663C172.815 99.38 173.715 99.08 174.363 98.48C175.035 97.856 175.371 96.98 175.371 95.852ZM183.361 84.26H181.165C180.901 84.26 180.769 84.14 180.769 83.9V83.036C180.769 82.772 180.901 82.64 181.165 82.64H183.361C183.577 82.64 183.685 82.532 183.685 82.316V79.4C183.685 79.112 183.817 78.968 184.081 78.968H185.125C185.389 78.968 185.521 79.112 185.521 79.4V82.316C185.521 82.532 185.629 82.64 185.845 82.64H190.129C190.393 82.64 190.525 82.772 190.525 83.036V83.9C190.525 84.14 190.393 84.26 190.129 84.26H185.845C185.629 84.26 185.521 84.368 185.521 84.584V95.924C185.521 97.028 185.833 97.88 186.457 98.48C187.081 99.08 187.957 99.38 189.085 99.38H190.489C190.753 99.38 190.885 99.512 190.885 99.776V100.604C190.885 100.868 190.753 101 190.489 101H188.941C187.357 101 186.085 100.556 185.125 99.668C184.165 98.78 183.685 97.556 183.685 95.996V84.584C183.685 84.368 183.577 84.26 183.361 84.26ZM195.23 79.616V76.16C195.23 75.896 195.35 75.764 195.59 75.764H196.67C196.91 75.764 197.03 75.896 197.03 76.16V79.616C197.03 79.904 196.91 80.048 196.67 80.048H195.59C195.35 80.048 195.23 79.904 195.23 79.616ZM195.23 100.568V83.072C195.23 82.784 195.35 82.64 195.59 82.64H196.634C196.898 82.64 197.03 82.784 197.03 83.072V100.568C197.03 100.856 196.91 101 196.67 101H195.59C195.35 101 195.23 100.856 195.23 100.568ZM210.384 101H207.288C205.728 101 204.492 100.544 203.58 99.632C202.692 98.72 202.248 97.472 202.248 95.888V87.752C202.248 86.168 202.692 84.92 203.58 84.008C204.492 83.096 205.728 82.64 207.288 82.64H210.384C211.944 82.64 213.18 83.096 214.092 84.008C215.004 84.92 215.46 86.168 215.46 87.752V95.888C215.46 97.472 215.004 98.72 214.092 99.632C213.18 100.544 211.944 101 210.384 101ZM207.432 99.38H210.24C211.344 99.38 212.184 99.08 212.76 98.48C213.36 97.856 213.66 96.98 213.66 95.852V87.788C213.66 86.66 213.36 85.796 212.76 85.196C212.184 84.572 211.344 84.26 210.24 84.26H207.432C206.328 84.26 205.488 84.572 204.912 85.196C204.336 85.796 204.048 86.66 204.048 87.788V95.852C204.048 96.98 204.336 97.856 204.912 98.48C205.488 99.08 206.328 99.38 207.432 99.38ZM221.872 101H220.828C220.588 101 220.468 100.856 220.468 100.568V83.072C220.468 82.784 220.588 82.64 220.828 82.64H221.872C222.136 82.64 222.268 82.784 222.268 83.072V84.512H222.412C223.084 83.264 224.332 82.64 226.156 82.64H228.532C230.068 82.64 231.28 83.096 232.168 84.008C233.056 84.92 233.5 86.168 233.5 87.752V100.568C233.5 100.856 233.38 101 233.14 101H232.096C231.832 101 231.7 100.856 231.7 100.568V87.824C231.7 86.696 231.412 85.82 230.836 85.196C230.26 84.572 229.42 84.26 228.316 84.26H225.976C224.824 84.26 223.912 84.572 223.24 85.196C222.592 85.796 222.268 86.66 222.268 87.788V100.568C222.268 100.856 222.136 101 221.872 101ZM255.331 101H252.919C251.383 101 250.171 100.544 249.283 99.632C248.395 98.72 247.951 97.472 247.951 95.888V87.752C247.951 86.168 248.395 84.92 249.283 84.008C250.171 83.096 251.383 82.64 252.919 82.64H255.331C257.179 82.64 258.439 83.264 259.111 84.512H259.255V76.124C259.255 75.836 259.375 75.692 259.615 75.692H260.659C260.923 75.692 261.055 75.836 261.055 76.124V100.568C261.055 100.856 260.923 101 260.659 101H259.615C259.375 101 259.255 100.856 259.255 100.568V99.128H259.111C258.439 100.376 257.179 101 255.331 101ZM259.255 95.852V87.788C259.255 86.66 258.919 85.796 258.247 85.196C257.599 84.572 256.699 84.26 255.547 84.26H253.135C252.031 84.26 251.191 84.572 250.615 85.196C250.039 85.82 249.751 86.696 249.751 87.824V95.816C249.751 96.944 250.039 97.82 250.615 98.444C251.191 99.068 252.031 99.38 253.135 99.38H255.547C256.699 99.38 257.599 99.08 258.247 98.48C258.919 97.856 259.255 96.98 259.255 95.852ZM278.656 101H271.132C269.572 101 268.336 100.544 267.424 99.632C266.536 98.72 266.092 97.472 266.092 95.888V87.752C266.092 86.168 266.536 84.92 267.424 84.008C268.336 83.096 269.572 82.64 271.132 82.64H274.228C275.788 82.64 277.024 83.096 277.936 84.008C278.848 84.92 279.304 86.168 279.304 87.752V92.324C279.304 92.612 279.16 92.756 278.872 92.756H268.216C268 92.756 267.892 92.864 267.892 93.08V95.852C267.892 96.98 268.18 97.856 268.756 98.48C269.332 99.08 270.172 99.38 271.276 99.38H278.656C278.92 99.38 279.052 99.512 279.052 99.776V100.604C279.052 100.868 278.92 101 278.656 101ZM268.216 91.316H277.18C277.396 91.316 277.504 91.208 277.504 90.992V87.788C277.504 86.66 277.216 85.796 276.64 85.196C276.064 84.572 275.224 84.26 274.12 84.26H271.276C270.172 84.26 269.332 84.572 268.756 85.196C268.18 85.796 267.892 86.66 267.892 87.788V90.992C267.892 91.208 268 91.316 268.216 91.316ZM282.479 82.64H283.595C283.835 82.64 283.991 82.784 284.063 83.072L288.887 98.984H289.031L293.819 83.072C293.915 82.784 294.071 82.64 294.287 82.64H295.439C295.703 82.64 295.787 82.784 295.691 83.072L290.255 100.568C290.183 100.856 290.015 101 289.751 101H288.167C287.903 101 287.723 100.856 287.627 100.568L282.191 83.072C282.119 82.784 282.215 82.64 282.479 82.64ZM311.351 101H303.827C302.267 101 301.031 100.544 300.119 99.632C299.231 98.72 298.787 97.472 298.787 95.888V87.752C298.787 86.168 299.231 84.92 300.119 84.008C301.031 83.096 302.267 82.64 303.827 82.64H306.923C308.483 82.64 309.719 83.096 310.631 84.008C311.543 84.92 311.999 86.168 311.999 87.752V92.324C311.999 92.612 311.855 92.756 311.567 92.756H300.911C300.695 92.756 300.587 92.864 300.587 93.08V95.852C300.587 96.98 300.875 97.856 301.451 98.48C302.027 99.08 302.867 99.38 303.971 99.38H311.351C311.615 99.38 311.747 99.512 311.747 99.776V100.604C311.747 100.868 311.615 101 311.351 101ZM300.911 91.316H309.875C310.091 91.316 310.199 91.208 310.199 90.992V87.788C310.199 86.66 309.911 85.796 309.335 85.196C308.759 84.572 307.919 84.26 306.815 84.26H303.971C302.867 84.26 302.027 84.572 301.451 85.196C300.875 85.796 300.587 86.66 300.587 87.788V90.992C300.587 91.208 300.695 91.316 300.911 91.316ZM318.45 101H317.406C317.166 101 317.046 100.856 317.046 100.568V76.124C317.046 75.836 317.166 75.692 317.406 75.692H318.45C318.714 75.692 318.846 75.836 318.846 76.124V100.568C318.846 100.856 318.714 101 318.45 101ZM332.201 101H329.105C327.545 101 326.309 100.544 325.397 99.632C324.509 98.72 324.065 97.472 324.065 95.888V87.752C324.065 86.168 324.509 84.92 325.397 84.008C326.309 83.096 327.545 82.64 329.105 82.64H332.201C333.761 82.64 334.997 83.096 335.909 84.008C336.821 84.92 337.277 86.168 337.277 87.752V95.888C337.277 97.472 336.821 98.72 335.909 99.632C334.997 100.544 333.761 101 332.201 101ZM329.249 99.38H332.057C333.161 99.38 334.001 99.08 334.577 98.48C335.177 97.856 335.477 96.98 335.477 95.852V87.788C335.477 86.66 335.177 85.796 334.577 85.196C334.001 84.572 333.161 84.26 332.057 84.26H329.249C328.145 84.26 327.305 84.572 326.729 85.196C326.153 85.796 325.865 86.66 325.865 87.788V95.852C325.865 96.98 326.153 97.856 326.729 98.48C327.305 99.08 328.145 99.38 329.249 99.38ZM343.688 106.364H342.644C342.404 106.364 342.284 106.232 342.284 105.968V83.072C342.284 82.784 342.404 82.64 342.644 82.64H343.688C343.952 82.64 344.084 82.784 344.084 83.072V84.512H344.228C344.9 83.264 346.148 82.64 347.972 82.64H350.42C351.956 82.64 353.168 83.096 354.056 84.008C354.944 84.92 355.388 86.168 355.388 87.752V95.888C355.388 97.472 354.944 98.72 354.056 99.632C353.168 100.544 351.956 101 350.42 101H347.972C346.148 101 344.9 100.376 344.228 99.128H344.084V105.968C344.084 106.232 343.952 106.364 343.688 106.364ZM347.792 99.38H350.168C351.272 99.38 352.112 99.08 352.688 98.48C353.288 97.856 353.588 96.968 353.588 95.816V87.824C353.588 86.672 353.288 85.796 352.688 85.196C352.112 84.572 351.272 84.26 350.168 84.26H347.792C346.64 84.26 345.728 84.572 345.056 85.196C344.408 85.796 344.084 86.66 344.084 87.788V95.852C344.084 96.98 344.408 97.856 345.056 98.48C345.728 99.08 346.64 99.38 347.792 99.38ZM361.829 101H360.785C360.545 101 360.425 100.856 360.425 100.568V83.072C360.425 82.784 360.545 82.64 360.785 82.64H361.829C362.093 82.64 362.225 82.784 362.225 83.072V84.512H362.369C363.065 83.264 364.337 82.64 366.185 82.64H367.661C369.773 82.64 371.237 83.48 372.053 85.16C372.413 84.32 373.025 83.696 373.889 83.288C374.753 82.856 375.641 82.64 376.553 82.64H377.885C379.445 82.64 380.669 83.096 381.557 84.008C382.445 84.92 382.889 86.168 382.889 87.752V100.568C382.889 100.856 382.757 101 382.493 101H381.449C381.185 101 381.053 100.856 381.053 100.568V87.824C381.053 86.672 380.765 85.796 380.189 85.196C379.613 84.572 378.773 84.26 377.669 84.26H376.337C375.185 84.26 374.273 84.596 373.601 85.268C372.929 85.916 372.593 86.804 372.593 87.932V100.568C372.593 100.856 372.461 101 372.197 101H371.153C370.889 101 370.757 100.856 370.757 100.568V87.824C370.757 86.672 370.469 85.796 369.893 85.196C369.317 84.572 368.477 84.26 367.373 84.26H365.933C364.781 84.26 363.869 84.572 363.197 85.196C362.549 85.796 362.225 86.66 362.225 87.788V100.568C362.225 100.856 362.093 101 361.829 101ZM400.297 101H392.773C391.213 101 389.977 100.544 389.065 99.632C388.177 98.72 387.733 97.472 387.733 95.888V87.752C387.733 86.168 388.177 84.92 389.065 84.008C389.977 83.096 391.213 82.64 392.773 82.64H395.869C397.429 82.64 398.665 83.096 399.577 84.008C400.489 84.92 400.945 86.168 400.945 87.752V92.324C400.945 92.612 400.801 92.756 400.513 92.756H389.857C389.641 92.756 389.533 92.864 389.533 93.08V95.852C389.533 96.98 389.821 97.856 390.397 98.48C390.973 99.08 391.813 99.38 392.917 99.38H400.297C400.561 99.38 400.693 99.512 400.693 99.776V100.604C400.693 100.868 400.561 101 400.297 101ZM389.857 91.316H398.821C399.037 91.316 399.145 91.208 399.145 90.992V87.788C399.145 86.66 398.857 85.796 398.281 85.196C397.705 84.572 396.865 84.26 395.761 84.26H392.917C391.813 84.26 390.973 84.572 390.397 85.196C389.821 85.796 389.533 86.66 389.533 87.788V90.992C389.533 91.208 389.641 91.316 389.857 91.316ZM407.215 101H406.171C405.931 101 405.811 100.856 405.811 100.568V83.072C405.811 82.784 405.931 82.64 406.171 82.64H407.215C407.479 82.64 407.611 82.784 407.611 83.072V84.512H407.755C408.427 83.264 409.675 82.64 411.499 82.64H413.875C415.411 82.64 416.623 83.096 417.511 84.008C418.399 84.92 418.843 86.168 418.843 87.752V100.568C418.843 100.856 418.723 101 418.483 101H417.439C417.175 101 417.043 100.856 417.043 100.568V87.824C417.043 86.696 416.755 85.82 416.179 85.196C415.603 84.572 414.763 84.26 413.659 84.26H411.319C410.167 84.26 409.255 84.572 408.583 85.196C407.935 85.796 407.611 86.66 407.611 87.788V100.568C407.611 100.856 407.479 101 407.215 101ZM424.849 84.26H422.653C422.389 84.26 422.257 84.14 422.257 83.9V83.036C422.257 82.772 422.389 82.64 422.653 82.64H424.849C425.065 82.64 425.173 82.532 425.173 82.316V79.4C425.173 79.112 425.305 78.968 425.569 78.968H426.613C426.877 78.968 427.009 79.112 427.009 79.4V82.316C427.009 82.532 427.117 82.64 427.333 82.64H431.617C431.881 82.64 432.013 82.772 432.013 83.036V83.9C432.013 84.14 431.881 84.26 431.617 84.26H427.333C427.117 84.26 427.009 84.368 427.009 84.584V95.924C427.009 97.028 427.321 97.88 427.945 98.48C428.569 99.08 429.445 99.38 430.573 99.38H431.977C432.241 99.38 432.373 99.512 432.373 99.776V100.604C432.373 100.868 432.241 101 431.977 101H430.429C428.845 101 427.573 100.556 426.613 99.668C425.653 98.78 425.173 97.556 425.173 95.996V84.584C425.173 84.368 425.065 84.26 424.849 84.26Z" fill="black"/>
<path d="M187.206 130.38H189.942C191.814 130.38 192.894 129.54 193.182 127.86L186.774 120.516C184.782 120.636 183.786 121.812 183.786 124.044V126.924C183.786 129.228 184.926 130.38 187.206 130.38ZM189.942 132H187.062C185.502 132 184.266 131.556 183.354 130.668C182.442 129.78 181.986 128.556 181.986 126.996V123.936C181.986 122.736 182.298 121.692 182.922 120.804C183.546 119.916 184.506 119.448 185.802 119.4C184.698 118.056 184.146 116.64 184.146 115.152V113.856C184.146 112.296 184.602 111.072 185.514 110.184C186.45 109.296 187.698 108.852 189.258 108.852H190.122C191.682 108.852 192.918 109.296 193.83 110.184C194.742 111.072 195.198 112.296 195.198 113.856V115.512C195.198 115.8 195.066 115.944 194.802 115.944H193.758C193.494 115.944 193.362 115.8 193.362 115.512V113.892C193.362 111.588 192.258 110.436 190.05 110.436H189.366C188.262 110.436 187.422 110.736 186.846 111.336C186.27 111.912 185.982 112.764 185.982 113.892V115.152C185.982 115.896 186.09 116.532 186.306 117.06C186.546 117.588 186.954 118.176 187.53 118.824L189.798 121.416H198.402C198.69 121.416 198.834 121.548 198.834 121.812V122.676C198.834 122.94 198.69 123.072 198.402 123.072H191.166L198.618 131.676C198.762 131.892 198.726 132 198.51 132H197.142C196.902 132 196.698 131.904 196.53 131.712L194.406 129.3C193.734 131.1 192.246 132 189.942 132Z" fill="black"/>
<path d="M219.384 132H216.972C215.436 132 214.224 131.544 213.336 130.632C212.448 129.72 212.004 128.472 212.004 126.888V118.752C212.004 117.168 212.448 115.92 213.336 115.008C214.224 114.096 215.436 113.64 216.972 113.64H219.384C221.232 113.64 222.492 114.264 223.164 115.512H223.308V107.124C223.308 106.836 223.428 106.692 223.668 106.692H224.712C224.976 106.692 225.108 106.836 225.108 107.124V131.568C225.108 131.856 224.976 132 224.712 132H223.668C223.428 132 223.308 131.856 223.308 131.568V130.128H223.164C222.492 131.376 221.232 132 219.384 132ZM223.308 126.852V118.788C223.308 117.66 222.972 116.796 222.3 116.196C221.652 115.572 220.752 115.26 219.6 115.26H217.188C216.084 115.26 215.244 115.572 214.668 116.196C214.092 116.82 213.804 117.696 213.804 118.824V126.816C213.804 127.944 214.092 128.82 214.668 129.444C215.244 130.068 216.084 130.38 217.188 130.38H219.6C220.752 130.38 221.652 130.08 222.3 129.48C222.972 128.856 223.308 127.98 223.308 126.852ZM242.709 132H235.185C233.625 132 232.389 131.544 231.477 130.632C230.589 129.72 230.145 128.472 230.145 126.888V118.752C230.145 117.168 230.589 115.92 231.477 115.008C232.389 114.096 233.625 113.64 235.185 113.64H238.281C239.841 113.64 241.077 114.096 241.989 115.008C242.901 115.92 243.357 117.168 243.357 118.752V123.324C243.357 123.612 243.213 123.756 242.925 123.756H232.269C232.053 123.756 231.945 123.864 231.945 124.08V126.852C231.945 127.98 232.233 128.856 232.809 129.48C233.385 130.08 234.225 130.38 235.329 130.38H242.709C242.973 130.38 243.105 130.512 243.105 130.776V131.604C243.105 131.868 242.973 132 242.709 132ZM232.269 122.316H241.233C241.449 122.316 241.557 122.208 241.557 121.992V118.788C241.557 117.66 241.269 116.796 240.693 116.196C240.117 115.572 239.277 115.26 238.173 115.26H235.329C234.225 115.26 233.385 115.572 232.809 116.196C232.233 116.796 231.945 117.66 231.945 118.788V121.992C231.945 122.208 232.053 122.316 232.269 122.316ZM254.163 132H247.899C247.635 132 247.503 131.868 247.503 131.604V130.776C247.503 130.536 247.635 130.416 247.899 130.416H253.983C256.143 130.416 257.223 129.576 257.223 127.896V127.032C257.223 125.472 256.551 124.452 255.207 123.972L250.707 122.244C249.483 121.764 248.607 121.2 248.079 120.552C247.575 119.904 247.323 119.004 247.323 117.852C247.323 115.044 248.871 113.64 251.967 113.64H257.799C258.063 113.64 258.195 113.772 258.195 114.036V114.864C258.195 115.104 258.063 115.224 257.799 115.224H252.147C251.163 115.224 250.419 115.44 249.915 115.872C249.435 116.304 249.195 116.808 249.195 117.384V118.212C249.195 118.884 249.375 119.412 249.735 119.796C250.119 120.18 250.695 120.504 251.463 120.768L255.963 122.568C257.211 122.976 258.039 123.588 258.447 124.404C258.879 125.196 259.095 126.312 259.095 127.752C259.095 129.192 258.687 130.26 257.871 130.956C257.079 131.652 255.843 132 254.163 132ZM263.907 110.616V107.16C263.907 106.896 264.027 106.764 264.267 106.764H265.347C265.587 106.764 265.707 106.896 265.707 107.16V110.616C265.707 110.904 265.587 111.048 265.347 111.048H264.267C264.027 111.048 263.907 110.904 263.907 110.616ZM263.907 131.568V114.072C263.907 113.784 264.027 113.64 264.267 113.64H265.311C265.575 113.64 265.707 113.784 265.707 114.072V131.568C265.707 131.856 265.587 132 265.347 132H264.267C264.027 132 263.907 131.856 263.907 131.568ZM278.414 130.956H276.074C274.538 130.956 273.314 130.5 272.402 129.588C271.514 128.676 271.07 127.44 271.07 125.88V118.752C271.07 117.168 271.514 115.92 272.402 115.008C273.314 114.096 274.55 113.64 276.11 113.64H283.742C284.006 113.64 284.138 113.784 284.138 114.072V131.928C284.138 133.512 283.682 134.76 282.77 135.672C281.858 136.584 280.622 137.04 279.062 137.04H272.51C272.246 137.04 272.114 136.908 272.114 136.644V135.78C272.114 135.54 272.246 135.42 272.51 135.42H278.918C280.022 135.42 280.862 135.108 281.438 134.484C282.014 133.884 282.302 133.008 282.302 131.856V129.084H282.158C281.558 130.332 280.31 130.956 278.414 130.956ZM282.302 125.808V115.584C282.302 115.368 282.194 115.26 281.978 115.26H276.29C275.186 115.26 274.334 115.572 273.734 116.196C273.158 116.796 272.87 117.672 272.87 118.824V125.808C272.87 126.936 273.158 127.812 273.734 128.436C274.334 129.036 275.186 129.336 276.29 129.336H278.594C279.746 129.336 280.646 129.036 281.294 128.436C281.966 127.812 282.302 126.936 282.302 125.808ZM290.901 132H289.857C289.617 132 289.497 131.856 289.497 131.568V114.072C289.497 113.784 289.617 113.64 289.857 113.64H290.901C291.165 113.64 291.297 113.784 291.297 114.072V115.512H291.441C292.113 114.264 293.361 113.64 295.185 113.64H297.561C299.097 113.64 300.309 114.096 301.197 115.008C302.085 115.92 302.529 117.168 302.529 118.752V131.568C302.529 131.856 302.409 132 302.169 132H301.125C300.861 132 300.729 131.856 300.729 131.568V118.824C300.729 117.696 300.441 116.82 299.865 116.196C299.289 115.572 298.449 115.26 297.345 115.26H295.005C293.853 115.26 292.941 115.572 292.269 116.196C291.621 116.796 291.297 117.66 291.297 118.788V131.568C291.297 131.856 291.165 132 290.901 132ZM309.471 127.284V131.568C309.471 131.856 309.351 132 309.111 132H307.851C307.587 132 307.455 131.856 307.455 131.568V127.284C307.455 127.02 307.587 126.888 307.851 126.888H309.111C309.351 126.888 309.471 127.02 309.471 127.284Z" fill="black"/>
</svg>
