<svg width="184" height="75" viewBox="0 0 184 75" fill="none" xmlns="http://www.w3.org/2000/svg">
<g clip-path="url(#clip0)">
<path fill-rule="evenodd" clip-rule="evenodd" d="M88.9321 39C89.4967 39 89.9517 38.532 89.9102 37.9688C89.5863 33.5677 88.0887 30.0314 85.4173 27.36C82.3773 24.32 78.2573 22.8 73.0573 22.8H62.7373C57.5373 22.8 53.4173 24.32 50.3773 27.36C47.776 30.0316 46.3178 33.5681 46.0025 37.9696C45.9622 38.5325 46.417 39 46.9813 39H51.0042C51.5385 39 51.975 38.5792 52.0274 38.0475C52.3069 35.2087 53.2369 32.9662 54.8173 31.32C56.7373 29.24 59.5373 28.2 63.2173 28.2H72.6973C76.3773 28.2 79.1773 29.24 81.0973 31.32C82.6777 32.9662 83.6076 35.2087 83.8872 38.0475C83.9395 38.5792 84.376 39 84.9104 39H88.9321ZM137.88 38C137.88 38.5523 137.432 39 136.88 39H132.88C132.327 39 131.88 38.5523 131.88 38V8.27999C131.88 7.31999 132.32 6.84 133.2 6.84H136.56C137.44 6.84 137.88 7.27999 137.88 8.15999V38Z" fill="black"/>
<path fill-rule="evenodd" clip-rule="evenodd" d="M46.9961 59C46.4288 59 45.9728 59.4723 46.0182 60.0379C46.364 64.3432 47.817 67.8105 50.3773 70.44C53.4173 73.48 57.5373 75 62.7373 75H87.8173C88.6973 75 89.1373 74.56 89.1373 73.68V70.92C89.1373 70.04 88.6973 69.6 87.8173 69.6H63.2173C59.5373 69.6 56.7373 68.6 54.8173 66.6C53.2714 64.9253 52.3478 62.706 52.0466 59.9422C51.9891 59.4149 51.5544 59 51.024 59H46.9961ZM93.2202 59C92.6525 59 92.1963 59.473 92.243 60.0388C92.5982 64.3437 94.0905 67.8107 96.7198 70.44C99.7598 73.48 103.88 75 109.08 75H121.08C126.28 75 130.36 73.48 133.32 70.44C135.949 67.8107 137.441 64.3437 137.797 60.0388C137.843 59.473 137.387 59 136.819 59H132.78C132.252 59 131.818 59.4112 131.758 59.9357C131.436 62.718 130.476 64.9395 128.88 66.6C126.96 68.6 124.16 69.6 120.48 69.6H109.56C105.88 69.6 103.08 68.6 101.16 66.6C99.6274 64.94 98.7066 62.7194 98.3972 59.9384C98.3387 59.4127 97.9046 59 97.3756 59H93.2202Z" fill="black"/>
<rect x="131.877" width="6" height="10" rx="1" fill="black"/>
<path fill-rule="evenodd" clip-rule="evenodd" d="M35.4837 20L0 47.5L35.4837 75L40 71.4998L9.03268 47.5L40 23.5002L35.4837 20Z" fill="black"/>
<path fill-rule="evenodd" clip-rule="evenodd" d="M148.516 20L184 47.5L148.516 75L144 71.4998L174.967 47.5L144 23.5002L148.516 20Z" fill="black"/>
</g>
<defs>
<clipPath id="clip0">
<rect width="184" height="75" fill="white"/>
</clipPath>
</defs>
</svg>
